# xmcd
#
# Track frame offsets: 
#        150
#        10973
#        22968
#        34422
#        36191
#        49008
#        60468
#        75728
#        77497
#        93658
#        109355
#        123143
#        124912
#        138630
#        151789
#
# Disc length: 2185 seconds
#
# Revision: 0
# Processed by: cddbd v1.5.2PL0 Copyright (c) Steve Scherf et al.
# Submitted via: ExactAudioCopy v0.99pb4
#
DISCID=bd08870f
DTITLE=Slidawg - Redneck Road Trip
DYEAR=2012
DGENRE=Comedy
TTITLE0=Dead Skunk
TTITLE1=Redneck Starbuck
TTITLE2=Georgia Backroads Pickin'
TTITLE3=Slidawgpound Shout Out - Dirt Bag
TTITLE4=Redneck Senorita
TTITLE5=Life is a Fryway
TTITLE6=Take a Detour
TTITLE7=Slidawgpound Shout Out - Lunatic
TTITLE8=Backroads Boogie
TTITLE9=Ride With the Harley's Angels
TTITLE10=Backseat Driver
TTITLE11=Slidawgpound Shout Out - Religion
TTITLE12=Save a Truck
TTITLE13=I Wanna Red Truck
TTITLE14=Waffle House Bluse
EXTD=
EXTT0=
EXTT1=
EXTT2=
EXTT3=
EXTT4=
EXTT5=
EXTT6=
EXTT7=
EXTT8=
EXTT9=
EXTT10=
EXTT11=
EXTT12=
EXTT13=
EXTT14=
PLAYORDER=
